<svg width="32" height="32" viewBox="0 0 32 32" fill="none" xmlns="http://www.w3.org/2000/svg">
<path d="M9.16073 1C9.48818 1 9.80967 1.08764 10.0918 1.25381C10.374 1.41997 10.6066 1.65862 10.7654 1.94499L13.0095 5.98732C13.1542 6.24808 13.2331 6.54017 13.2395 6.83832C13.2459 7.13646 13.1796 7.43167 13.0462 7.69839L10.8846 12.0233C10.8846 12.0233 11.5113 15.2445 14.1334 17.8675C16.7564 20.4896 19.9666 21.1062 19.9666 21.1062L24.2906 18.9437C24.5574 18.8102 24.8528 18.7437 25.1511 18.7501C25.4495 18.7565 25.7417 18.8356 26.0026 18.9804L30.0578 21.2355C30.3435 21.3946 30.5815 21.6272 30.7471 21.9092C30.9128 22.1911 31.0001 22.5122 31 22.8393V27.4936C31 29.8643 28.7981 31.5763 26.5521 30.8184C21.9391 29.2615 14.7784 26.2981 10.2397 21.7594C5.7019 17.2207 2.73757 10.0609 1.18156 5.44694C0.423734 3.20191 2.13572 1 4.50644 1H9.15981H9.16073Z" stroke="#131313" stroke-width="1.5" stroke-linejoin="round"/>
</svg>
