<svg width="27" height="30" viewBox="0 0 27 30" fill="none" xmlns="http://www.w3.org/2000/svg">
<path d="M19.7183 9.34272V6.57277C19.7183 5.70962 19.5483 4.85492 19.218 4.05748C18.8877 3.26003 18.4035 2.53546 17.7932 1.92512C17.1829 1.31478 16.4583 0.830635 15.6608 0.500322C14.8634 0.17001 14.0087 0 13.1455 0C12.2824 0 11.4277 0.17001 10.6302 0.500322C9.8328 0.830635 9.10823 1.31478 8.49789 1.92512C7.88755 2.53546 7.40341 3.26003 7.07309 4.05748C6.74278 4.85492 6.57277 5.70962 6.57277 6.57277V13.1455C6.57277 13.3946 6.6717 13.6334 6.84779 13.8095C7.02388 13.9856 7.26271 14.0845 7.51174 14.0845C7.76077 14.0845 7.9996 13.9856 8.17569 13.8095C8.35178 13.6334 8.4507 13.3946 8.4507 13.1455V11.2207H15.9624V9.34272H8.4507V6.57277C8.4507 5.32762 8.94534 4.13347 9.82579 3.25302C10.7062 2.37257 11.9004 1.87793 13.1455 1.87793C14.3907 1.87793 15.5848 2.37257 16.4653 3.25302C17.3457 4.13347 17.8404 5.32762 17.8404 6.57277V13.0986C17.8404 13.3476 17.9393 13.5865 18.1154 13.7625C18.2915 13.9386 18.5303 14.0376 18.7793 14.0376C19.0284 14.0376 19.2672 13.9386 19.4433 13.7625C19.6194 13.5865 19.7183 13.3476 19.7183 13.0986V11.2207H24.4131V28.1221H1.87793V11.2207H4.69484V9.34272H0V28.2066C0 28.6822 0.18895 29.1384 0.525282 29.4747C0.861615 29.8111 1.31778 30 1.79343 30H24.4977C24.9733 30 25.4295 29.8111 25.7658 29.4747C26.1021 29.1384 26.2911 28.6822 26.2911 28.2066V9.34272H19.7183Z" fill="#131313"/>
</svg>
