<svg width="40" height="40" viewBox="0 0 40 40" fill="none" xmlns="http://www.w3.org/2000/svg">
<path d="M35.8333 6.66669H32.2222V8.88891H35.5555V33.3334H4.44443V8.88891H7.77777V6.66669H4.16665C3.90692 6.67103 3.65058 6.72649 3.41228 6.82992C3.17399 6.93334 2.9584 7.0827 2.77783 7.26945C2.59727 7.45621 2.45526 7.67671 2.35993 7.91836C2.26459 8.16 2.21779 8.41806 2.22221 8.6778V33.5445C2.21779 33.8042 2.26459 34.0623 2.35993 34.3039C2.45526 34.5456 2.59727 34.7661 2.77783 34.9528C2.9584 35.1396 3.17399 35.2889 3.41228 35.3923C3.65058 35.4958 3.90692 35.5512 4.16665 35.5556H35.8333C36.0931 35.5512 36.3494 35.4958 36.5877 35.3923C36.826 35.2889 37.0416 35.1396 37.2221 34.9528C37.4027 34.7661 37.5447 34.5456 37.64 34.3039C37.7354 34.0623 37.7822 33.8042 37.7778 33.5445V8.6778C37.7822 8.41806 37.7354 8.16 37.64 7.91836C37.5447 7.67671 37.4027 7.45621 37.2221 7.26945C37.0416 7.0827 36.826 6.93334 36.5877 6.82992C36.3494 6.72649 36.0931 6.67103 35.8333 6.66669Z" fill="#131313"/>
<path d="M8.88916 15.5555H11.1114V17.7778H8.88916V15.5555Z" fill="#131313"/>
<path d="M15.5554 15.5555H17.7776V17.7778H15.5554V15.5555Z" fill="#131313"/>
<path d="M22.2222 15.5555H24.4444V17.7778H22.2222V15.5555Z" fill="#131313"/>
<path d="M28.8892 15.5555H31.1114V17.7778H28.8892V15.5555Z" fill="#131313"/>
<path d="M8.88916 21.1111H11.1114V23.3333H8.88916V21.1111Z" fill="#131313"/>
<path d="M15.5554 21.1111H17.7776V23.3333H15.5554V21.1111Z" fill="#131313"/>
<path d="M22.2222 21.1111H24.4444V23.3333H22.2222V21.1111Z" fill="#131313"/>
<path d="M28.8892 21.1111H31.1114V23.3333H28.8892V21.1111Z" fill="#131313"/>
<path d="M8.88916 26.6667H11.1114V28.8889H8.88916V26.6667Z" fill="#131313"/>
<path d="M15.5554 26.6667H17.7776V28.8889H15.5554V26.6667Z" fill="#131313"/>
<path d="M22.2222 26.6667H24.4444V28.8889H22.2222V26.6667Z" fill="#131313"/>
<path d="M28.8892 26.6667H31.1114V28.8889H28.8892V26.6667Z" fill="#131313"/>
<path d="M11.1111 11.1111C11.4058 11.1111 11.6884 10.9941 11.8968 10.7857C12.1052 10.5773 12.2222 10.2947 12.2222 10V3.33334C12.2222 3.03866 12.1052 2.75604 11.8968 2.54767C11.6884 2.33929 11.4058 2.22223 11.1111 2.22223C10.8164 2.22223 10.5338 2.33929 10.3254 2.54767C10.1171 2.75604 10 3.03866 10 3.33334V10C10 10.2947 10.1171 10.5773 10.3254 10.7857C10.5338 10.9941 10.8164 11.1111 11.1111 11.1111Z" fill="#131313"/>
<path d="M28.8889 11.1111C29.1836 11.1111 29.4662 10.9941 29.6746 10.7857C29.883 10.5773 30.0001 10.2947 30.0001 10V3.33334C30.0001 3.03866 29.883 2.75604 29.6746 2.54767C29.4662 2.33929 29.1836 2.22223 28.8889 2.22223C28.5943 2.22223 28.3116 2.33929 28.1033 2.54767C27.8949 2.75604 27.7778 3.03866 27.7778 3.33334V10C27.7778 10.2947 27.8949 10.5773 28.1033 10.7857C28.3116 10.9941 28.5943 11.1111 28.8889 11.1111Z" fill="#131313"/>
<path d="M14.4446 6.66669H25.5557V8.88891H14.4446V6.66669Z" fill="#131313"/>
</svg>
