<svg width="30" height="25" viewBox="0 0 30 25" fill="none" xmlns="http://www.w3.org/2000/svg">
<path d="M14.0497 23.8922C14.3462 24.1391 14.727 24.2614 15.1118 24.2332C15.4974 24.2077 15.859 24.0371 16.1238 23.7558L29.6415 9.44273C29.7807 9.27731 29.8832 9.08421 29.9421 8.87621C30.0011 8.6682 30.0152 8.45005 29.9835 8.23619V8.22817C29.951 7.98131 29.8546 7.74724 29.7037 7.54917C29.6646 7.49301 28.8111 6.35366 27.8081 5.01673L27.4731 4.56842L26.4371 3.18937L25.9978 2.60264C25.2356 1.58566 24.6428 0.795336 24.5937 0.727135C24.5646 0.682082 24.531 0.64008 24.4934 0.601767C24.3505 0.415153 24.1667 0.263844 23.9562 0.159508C23.7456 0.0551733 23.5138 0.000600777 23.2788 0H6.79341C6.55997 0.00409372 6.33048 0.0608846 6.12207 0.16613C5.91366 0.271375 5.73173 0.422353 5.58987 0.607785L0.384584 7.47997C0.339209 7.53758 0.296376 7.59714 0.256207 7.65849C0.0629689 7.93544 -0.0255684 8.27205 0.00639684 8.60824C0.0383621 8.94442 0.18875 9.25831 0.43072 9.49388L13.8973 23.7477C13.9264 23.7798 14.0156 23.8631 14.0497 23.8922ZM2.66729 8.93825H9.09316L13.7017 20.6135L2.66729 8.93925V8.93825ZM10.2034 7.93531L14.476 2.00589H15.5281L19.7996 7.93531H10.2034ZM10.1713 8.93825H19.8317L15.0015 21.1752L10.1713 8.93925V8.93825ZM20.9099 8.93825H27.3638L16.2763 20.6787L20.9099 8.93825ZM27.8322 8.4428L27.8573 8.41672C27.8489 8.40537 27.8405 8.394 27.8322 8.38262V8.4428ZM27.4972 7.93631H21.0352L16.7627 2.00589H23.0451L24.8334 4.3919L25.8724 5.76894L26.2335 6.25036L27.4972 7.93531V7.93631ZM8.96779 7.93631H2.55195L7.04715 2.00589H13.2393L8.96679 7.93531L8.96779 7.93631Z" fill="#074F57"/>
</svg>
