<svg width="22" height="17" viewBox="0 0 22 17" fill="none" xmlns="http://www.w3.org/2000/svg">
<path d="M1.13801 1.13801C0.953601 1.32242 0.85 1.57254 0.85 1.83333C0.85 2.09413 0.953601 2.34424 1.13801 2.52865C1.32242 2.71307 1.57254 2.81667 1.83333 2.81667H20.1667C20.4275 2.81667 20.6776 2.71307 20.862 2.52865C21.0464 2.34424 21.15 2.09413 21.15 1.83333C21.15 1.57254 21.0464 1.32242 20.862 1.13801C20.6776 0.953601 20.4275 0.85 20.1667 0.85H1.83333C1.57254 0.85 1.32242 0.953601 1.13801 1.13801ZM4.47135 7.80468C4.28693 7.98909 4.18333 8.2392 4.18333 8.5C4.18333 8.7608 4.28693 9.01091 4.47135 9.19532C4.65576 9.37973 4.90587 9.48333 5.16667 9.48333H16.8333C17.0941 9.48333 17.3442 9.37973 17.5287 9.19532C17.7131 9.01091 17.8167 8.7608 17.8167 8.5C17.8167 8.2392 17.7131 7.98909 17.5287 7.80468C17.3442 7.62027 17.0941 7.51667 16.8333 7.51667H5.16667C4.90587 7.51667 4.65576 7.62027 4.47135 7.80468ZM7.80468 14.4713C7.62027 14.6558 7.51667 14.9059 7.51667 15.1667C7.51667 15.4275 7.62027 15.6776 7.80468 15.862C7.98909 16.0464 8.2392 16.15 8.5 16.15H13.5C13.7608 16.15 14.0109 16.0464 14.1953 15.862C14.3797 15.6776 14.4833 15.4275 14.4833 15.1667C14.4833 14.9059 14.3797 14.6558 14.1953 14.4713C14.0109 14.2869 13.7608 14.1833 13.5 14.1833H8.5C8.2392 14.1833 7.98909 14.2869 7.80468 14.4713Z" fill="#131313" stroke="black" stroke-width="0.3"/>
</svg>
